<?xml version="1.0" standalone="no"?>
<!DOCTYPE svg PUBLIC "-//W3C//DTD SVG 20010904//EN"
 "http://www.w3.org/TR/2001/REC-SVG-20010904/DTD/svg10.dtd">
<svg version="1.0" xmlns="http://www.w3.org/2000/svg"
 width="621.000000pt" height="621.000000pt" viewBox="0 0 621.000000 621.000000"
 preserveAspectRatio="xMidYMid meet">
<metadata>
Created by potrace 1.14, written by Peter Selinger 2001-2017
</metadata>
<g transform="translate(0.000000,621.000000) scale(0.100000,-0.100000)"
fill="#000000" stroke="none">
<path d="M0 3105 l0 -3105 3105 0 3105 0 0 3105 0 3105 -3105 0 -3105 0 0
-3105z m1920 1155 c7 -14 10 -299 8 -927 -4 -1010 0 -958 -73 -1103 -44 -87
-92 -130 -145 -130 -70 0 -111 35 -161 140 -52 109 -72 229 -66 410 4 130 9
169 31 243 39 132 88 202 157 227 30 11 40 10 67 -4 31 -16 32 -16 37 6 8 33
1 298 -7 298 -5 0 -95 0 -202 0 l-195 0 -3 -497 -4 -498 -26 -86 c-50 -160
-116 -244 -193 -244 -55 0 -95 33 -139 116 -56 105 -80 217 -80 389 -2 270 62
458 173 511 36 17 49 19 68 10 13 -6 28 -11 33 -11 6 0 10 213 10 563 0 493 2
565 16 585 15 22 15 22 349 22 324 0 335 -1 345 -20z m3494 -9 c28 -26 46 -27
46 -1 0 17 7 20 44 20 l45 0 6 -43 c5 -31 1 -297 -4 -314 -2 -4 -81 6 -89 11
-5 3 -12 23 -16 44 -7 49 -40 92 -71 92 -25 0 -35 -17 -35 -60 0 -21 10 -37
37 -59 21 -17 42 -31 47 -31 6 0 31 -22 56 -48 64 -67 85 -140 85 -292 0 -104
-3 -121 -27 -173 -40 -85 -81 -117 -151 -117 -35 0 -50 6 -79 33 -37 33 -37
33 -43 10 -5 -20 -12 -23 -50 -23 l-45 0 0 180 0 180 48 0 48 0 12 -58 c13
-63 43 -102 79 -102 24 0 33 18 33 62 0 22 -9 39 -32 59 -18 16 -39 29 -45 29
-7 0 -13 5 -13 10 0 6 -6 10 -14 10 -8 0 -29 17 -46 38 -98 118 -97 435 2 529
18 17 40 33 48 37 30 11 101 -2 124 -23z m-1146 -169 l2 -183 -52 3 -53 3 -5
50 -5 50 -40 0 c-32 0 -40 -4 -39 -17 0 -10 1 -45 2 -77 l2 -60 43 -3 42 -3 0
-60 0 -60 -44 -5 -44 -5 2 -80 c1 -43 5 -83 7 -87 8 -13 54 -4 65 13 5 8 9 28
9 44 0 47 12 57 61 53 l44 -3 3 -177 2 -177 -32 -6 c-18 -3 -109 -5 -203 -3
l-170 3 -3 122 c-2 114 -1 123 18 133 19 10 20 20 20 231 0 212 -1 221 -20
226 -19 5 -20 14 -20 134 l0 129 203 -2 202 -3 3 -183z m280 57 c2 -120 2
-127 -18 -132 -19 -5 -20 -12 -20 -236 l0 -231 37 4 c46 6 53 17 53 94 l0 62
50 0 50 0 0 -206 0 -205 -192 2 c-106 1 -198 4 -205 6 -10 4 -13 37 -13 124 0
108 2 119 20 129 19 10 20 21 20 231 0 212 -1 221 -20 226 -19 5 -20 14 -20
134 l0 130 128 -3 127 -3 3 -126z m442 1 c0 -108 -3 -130 -15 -130 -30 0 -35
-38 -33 -251 l3 -212 25 -4 c44 -6 60 15 67 90 l6 67 48 0 49 0 0 -199 c0
-176 -2 -200 -17 -205 -9 -4 -101 -6 -204 -6 -157 1 -188 4 -193 17 -8 20 -8
207 0 227 3 9 12 16 19 16 22 0 25 26 25 230 0 204 -3 230 -25 230 -20 0 -25
25 -25 130 0 54 3 105 6 114 5 13 27 16 135 16 l129 0 0 -130z m-1964 77 c41
-48 54 -106 54 -236 0 -106 -17 -183 -50 -221 -19 -22 -19 -23 -1 -49 27 -38
34 -66 40 -166 3 -49 11 -90 16 -90 6 0 11 43 13 103 2 84 5 102 18 102 24 0
16 -281 -9 -327 -42 -78 -101 -95 -155 -45 -38 36 -52 100 -52 240 0 106 -11
151 -37 160 -10 3 -13 -15 -13 -65 0 -56 4 -72 20 -86 18 -15 20 -29 20 -127
0 -95 -2 -111 -18 -119 -10 -5 -68 -9 -128 -8 l-109 2 -3 126 c-2 117 -1 127
16 131 24 7 30 70 28 286 -1 147 -2 155 -23 172 -22 17 -23 26 -23 140 l0 122
181 -4 181 -3 34 -38z m534 -81 c0 -87 -4 -126 -12 -128 -7 -3 -13 -32 -15
-74 l-4 -69 30 35 c38 43 47 74 32 103 -8 14 -11 63 -9 137 l3 115 109 3 c81
2 112 -1 118 -10 4 -7 8 -61 8 -120 0 -106 0 -107 -27 -123 -33 -20 -93 -96
-93 -117 0 -31 110 -333 125 -344 13 -9 16 -36 17 -128 1 -66 -3 -121 -9 -127
-6 -6 -59 -8 -129 -7 l-119 3 -3 128 c-1 76 1 127 7 127 21 0 20 39 -2 105
l-23 69 -17 -24 c-21 -30 -22 -109 -2 -136 11 -14 14 -50 15 -146 l0 -128
-115 0 c-113 0 -116 0 -125 24 -5 14 -8 70 -6 126 3 90 6 103 25 116 20 15 21
23 21 228 0 209 0 214 -22 228 -19 13 -22 25 -26 111 -2 53 -1 108 2 122 l6
25 120 0 120 0 0 -124z m-1080 85 c41 -33 72 -91 96 -176 25 -89 31 -384 10
-493 -17 -94 -55 -185 -89 -214 -58 -51 -87 -58 -251 -58 -131 0 -155 2 -160
16 -8 20 -8 208 0 228 3 9 12 16 19 16 22 0 25 26 25 234 l0 202 -25 22 c-24
21 -25 27 -25 137 l0 115 183 0 182 0 35 -29z m-254 -1533 c10 -18 19 -66 22
-106 5 -73 5 -74 -19 -70 -20 2 -25 10 -27 43 -4 47 -18 67 -32 45 -20 -31
-10 -93 32 -189 37 -87 41 -105 46 -201 5 -118 -8 -166 -52 -195 -25 -17 -27
-16 -46 6 -27 32 -40 83 -40 152 0 55 1 58 23 55 19 -3 23 -11 27 -53 4 -36 9
-50 20 -50 11 0 16 14 18 56 3 49 -3 71 -40 155 -42 97 -43 102 -43 209 0 92
3 115 20 143 14 24 26 32 47 32 21 0 32 -8 44 -32z m88 10 c3 -13 6 -62 6
-109 0 -47 3 -135 7 -195 l8 -109 10 215 10 215 25 0 c24 0 25 -3 32 -85 3
-47 6 -129 7 -183 1 -145 21 -113 22 36 1 170 10 231 32 235 14 3 17 -4 17
-40 0 -83 -21 -613 -26 -636 -4 -19 -10 -23 -32 -20 -26 3 -27 6 -33 73 -4 39
-8 115 -9 170 -3 129 -18 90 -19 -51 -1 -56 -4 -122 -7 -148 -6 -42 -9 -46
-35 -46 -22 0 -30 6 -33 23 -6 25 -26 509 -26 610 0 59 2 67 19 67 11 0 21 -9
25 -22z m330 6 c11 -28 6 -81 -8 -93 -8 -7 -26 -10 -40 -7 -14 3 -26 2 -27 -2
-1 -10 -1 -133 0 -153 1 -11 10 -16 29 -15 26 1 27 0 27 -54 0 -54 -1 -55 -30
-58 l-30 -3 1 -92 1 -92 39 -5 39 -5 0 -50 0 -50 -65 0 -65 0 -3 335 c-1 184
0 341 3 347 7 20 121 17 129 -3z m154 -41 l-3 -58 -38 -3 -38 -3 3 -82 3 -82
30 -5 c29 -5 30 -7 30 -55 0 -49 -1 -50 -32 -53 l-33 -3 0 -95 0 -94 40 0 40
0 0 -55 0 -56 -62 3 -63 3 -3 335 c-1 184 0 341 3 347 3 9 26 13 65 13 l61 0
-3 -57z m162 -3 c0 -57 -1 -60 -25 -60 l-25 0 0 -291 0 -290 -22 3 -23 3 -5
290 c-5 282 -6 290 -25 290 -16 0 -21 8 -23 44 -5 68 -2 71 78 71 l70 0 0 -60z
m201 34 c22 -23 24 -35 27 -136 3 -69 -1 -120 -8 -138 -9 -22 -9 -33 1 -51 18
-34 24 -206 9 -267 -15 -63 -28 -75 -88 -76 l-47 -1 -3 335 c-1 184 0 341 3
347 2 8 21 13 43 13 28 0 45 -7 63 -26z m182 -14 c16 -32 17 -64 15 -327 l-3
-291 -25 -27 c-30 -32 -56 -29 -84 8 -20 27 -21 43 -24 294 -4 335 6 387 72
381 24 -2 35 -11 49 -38z m98 -75 c9 -60 17 -105 18 -100 1 6 6 42 11 80 18
130 19 135 40 135 26 0 26 -30 -1 -202 -13 -76 -24 -209 -28 -313 -6 -171 -7
-180 -26 -180 -19 0 -20 9 -26 180 -5 150 -36 423 -54 473 -8 22 7 43 29 40
19 -3 23 -15 37 -113z"/>
<path d="M1267 4143 c-4 -3 -7 -271 -7 -595 0 -410 -3 -588 -11 -588 -6 0 -25
11 -43 25 -46 35 -85 32 -126 -7 -161 -157 -138 -691 33 -762 87 -35 169 78
197 272 5 37 10 290 10 563 l0 496 240 7 c186 6 244 5 256 -5 13 -10 14 -54
12 -295 -2 -186 -7 -287 -14 -294 -8 -8 -20 -2 -45 20 -87 76 -177 3 -223
-182 -19 -78 -22 -257 -6 -349 14 -78 58 -176 94 -208 33 -31 103 -34 133 -5
31 30 70 103 89 169 17 55 18 130 21 903 l4 842 -304 0 c-167 0 -307 -3 -310
-7z m553 -129 c13 -33 13 -285 0 -319 l-10 -25 -242 2 -243 3 -3 169 c-2 116
1 173 9 182 9 11 59 14 245 14 l234 0 10 -26z"/>
<path d="M1563 3912 l-193 -2 0 -55 0 -54 200 -3 200 -3 0 57 c0 31 -3 58 -7
60 -5 2 -95 2 -200 0z"/>
<path d="M2850 3915 c0 -93 0 -95 24 -95 28 0 36 21 36 98 0 62 -13 92 -40 92
-19 0 -20 -7 -20 -95z"/>
<path d="M2305 3998 c-3 -7 -4 -112 -3 -233 l3 -220 30 0 c25 0 33 7 50 40 17
34 20 60 20 180 0 138 -11 201 -38 223 -23 19 -57 24 -62 10z"/>
<path d="M3100 2524 c0 -76 2 -85 18 -82 14 3 18 16 20 72 3 64 -7 96 -29 96
-5 0 -9 -39 -9 -86z"/>
<path d="M3100 2225 c0 -86 2 -95 19 -95 22 0 31 26 31 95 0 69 -9 95 -31 95
-17 0 -19 -9 -19 -95z"/>
<path d="M3275 2598 c-3 -13 -4 -122 -3 -243 3 -201 5 -220 21 -223 16 -3 17
12 15 239 -2 179 -6 243 -15 246 -7 3 -15 -6 -18 -19z"/>
</g>
</svg>
